<svg id="Layer_1" data-name="Layer 1" xmlns="http://www.w3.org/2000/svg" xmlns:xlink="http://www.w3.org/1999/xlink" viewBox="0 0 1600 1097.08"><defs><style>.cls-1,.cls-5{fill:none;}.cls-2{fill:#959696;}.cls-3{fill:#1c1b1a;}.cls-4{clip-path:url(#clip-path);}.cls-5{stroke:#1c1b1a;stroke-miterlimit:10;stroke-width:4.95px;}</style><clipPath id="clip-path"><rect class="cls-1" x="1.52" y="82.8" width="1398.96" height="1014.28"/></clipPath></defs><title>ucsd-trident-solid</title><path class="cls-2" d="M65,124.56c-1.11-1.78-3-2.81-5.78-2.81-3.4,0-5.15,2.06-5.15,4.63,0,2.26,1.27,3.32,3.8,4.08l3.56,1.07c4,1.23,6.45,3.21,6.45,7,0,4.63-3.44,7.8-9.14,7.8-6,0-8.15-2.89-9.18-5.07l2.57-1.74c.91,2,2.34,3.84,6.61,3.84,3.76,0,5.62-1.86,5.62-4.63,0-2.34-1.66-3.44-4.08-4.16l-3.56-1.07c-4-1.23-6.14-3.44-6.14-7,0-4,2.69-7.76,8.63-7.76,4.31,0,7,1.86,8.27,3.92Z"/><path class="cls-2" d="M87.71,136.87c0,5.5-2.41,9.46-8.23,9.46-5.5,0-8-4-8-9.42s2.45-9.42,8.15-9.42S87.71,131.49,87.71,136.87Zm-3.25,0c0-4-1.39-6.53-4.95-6.53-3.4,0-4.87,2.49-4.87,6.49s1.46,6.57,4.87,6.57C83.08,143.44,84.47,140.91,84.47,136.91Z"/><path class="cls-2" d="M95.15,118.63v22.21c0,1.54.4,2.26,1.82,2.26h1V146H96.1C93,146,92,144.16,92,141.19V118.63Z"/><path class="cls-2" d="M100.73,121.36a2,2,0,0,1,2.22-2.22,2.07,2.07,0,0,1,2.22,2.22A2,2,0,0,1,103,123.5,2,2,0,0,1,100.73,121.36Zm.67,6.53h3.17v18h-3.17Z"/><path class="cls-2" d="M121.87,118.63H125v27.31h-3v-1.7a6.94,6.94,0,0,1-5.3,2.1c-5.11,0-7.6-3.64-7.6-9.46s2.45-9.38,7.64-9.38a6.68,6.68,0,0,1,5.19,2.1Zm-4.51,24.78a5.11,5.11,0,0,0,4.51-2.18V132.6a5.47,5.47,0,0,0-4.51-2.18c-3.88,0-5.07,2.65-5.07,6.45S113.48,143.4,117.36,143.4Z"/><path class="cls-2" d="M886.31,143v2.89H871.5V119.18h3.4V143Z"/><path class="cls-2" d="M889.12,121.36a2,2,0,0,1,2.22-2.22,2.07,2.07,0,0,1,2.22,2.22,2,2,0,0,1-2.22,2.14A2,2,0,0,1,889.12,121.36Zm.67,6.53H893v18h-3.17Z"/><path class="cls-2" d="M898.3,127.89h3.09v2.18a7.26,7.26,0,0,1,5.94-2.57c4.47,0,6.33,2.41,6.33,6.93v11.52h-3.17V134.7c0-2.81-1-4.27-4.12-4.27a6.4,6.4,0,0,0-4.91,2.1v13.42H898.3Z"/><path class="cls-2" d="M931.11,141.66l1.58,2.14a9.27,9.27,0,0,1-6.49,2.53c-5.94,0-8.27-3.92-8.27-9.46,0-5.19,2.49-9.38,7.92-9.38,5.07,0,7.24,3.72,7.24,7.6a20.6,20.6,0,0,1-.24,2.81H921.1c.08,3.4,1.54,5.7,5.11,5.7A7.44,7.44,0,0,0,931.11,141.66ZM930,135.49a6,6,0,0,0,.08-.79c0-2.73-1.58-4.55-4.24-4.55-3.25,0-4.51,2.34-4.71,5.34Z"/><path class="cls-2" d="M960.72,138.89H949.64l-2.42,7h-3.64l9.58-26.76h4l9.66,26.76h-3.72ZM950.55,136h9.26l-4.59-13.38Z"/><path class="cls-2" d="M973,130.86a5.42,5.42,0,0,1,5-3.36,7.27,7.27,0,0,1,2.18.28l-.36,3.33a10.15,10.15,0,0,0-2.41-.36c-2.22,0-3.52,1.46-4.39,3.4v11.8H969.9v-18H973v3Z"/><path class="cls-2" d="M988.11,140.71c0,1.66.71,2.69,2.45,2.69a6.7,6.7,0,0,0,2.45-.55l.32,2.73a8.92,8.92,0,0,1-3.68.75c-3.29,0-4.67-2.1-4.67-5.26V130.62h-3.44v-2.34l3.44-.4v-4.51l3.13-.59v5.11h4.83v2.73h-4.83Z"/><rect class="cls-3" x="360.12" y="117.44" width="95.44" height="979.64"/><rect class="cls-3" x="476.28" y="254.66" width="95.44" height="548.78"/><rect class="cls-3" x="243.95" y="254.66" width="95.44" height="548.78"/><g class="cls-4"><rect class="cls-5" x="1182.01" y="119.91" width="90.49" height="974.69"/></g><rect class="cls-5" x="1298.17" y="257.13" width="90.49" height="543.83"/><rect class="cls-5" x="1065.84" y="257.13" width="90.49" height="543.83"/></svg>